<?xml version="1.0" encoding="UTF-8" standalone="no"?>
<svg
   width="200mm"
   height="200mm"
   viewBox="0 0 200 200"
   version="1.1"
   id="svg8"
   inkscape:version="1.1 (c68e22c387, 2021-05-23)"
   sodipodi:docname="logo_usb.svg"
   inkscape:export-filename="/home/schuyler/Pictures/ftpcon/logo_usb.png"
   inkscape:export-xdpi="101.6"
   inkscape:export-ydpi="101.6"
   xmlns:inkscape="http://www.inkscape.org/namespaces/inkscape"
   xmlns:sodipodi="http://sodipodi.sourceforge.net/DTD/sodipodi-0.dtd"
   xmlns="http://www.w3.org/2000/svg"
   xmlns:svg="http://www.w3.org/2000/svg"
   xmlns:rdf="http://www.w3.org/1999/02/22-rdf-syntax-ns#"
   xmlns:cc="http://creativecommons.org/ns#"
   xmlns:dc="http://purl.org/dc/elements/1.1/">
  <defs
     id="defs2" />
  <sodipodi:namedview
     id="base"
     pagecolor="#ffffff"
     bordercolor="#666666"
     borderopacity="1.0"
     inkscape:pageopacity="0.0"
     inkscape:pageshadow="2"
     inkscape:zoom="1.347405"
     inkscape:cx="474.24494"
     inkscape:cy="393.71978"
     inkscape:document-units="mm"
     inkscape:current-layer="layer1"
     inkscape:document-rotation="0"
     showgrid="true"
     inkscape:window-width="2888"
     inkscape:window-height="2083"
     inkscape:window-x="26"
     inkscape:window-y="23"
     inkscape:window-maximized="0"
     inkscape:pagecheckerboard="0"
     inkscape:snap-global="true"
     inkscape:snap-bbox="true"
     inkscape:snap-grids="true">
    <inkscape:grid
       type="xygrid"
       id="grid10"
       units="mm"
       spacingx="2.5"
       spacingy="2.5"
       empspacing="2"
       empcolor="#1e1eff"
       empopacity="0.34901961"
       color="#5858ff"
       opacity="0.2" />
  </sodipodi:namedview>
  <metadata
     id="metadata5">
    <rdf:RDF>
      <cc:Work
         rdf:about="">
        <dc:format>image/svg+xml</dc:format>
        <dc:type
           rdf:resource="http://purl.org/dc/dcmitype/StillImage" />
      </cc:Work>
    </rdf:RDF>
  </metadata>
  <g
     inkscape:label="logo"
     inkscape:groupmode="layer"
     id="layer1"
     style="display:inline">
    <rect
       style="fill:#000000;fill-opacity:1;stroke:none;stroke-width:0.264583;stroke-opacity:1"
       id="rect987"
       width="200"
       height="200"
       x="0"
       y="0" />
    <path
       style="fill:#000000;stroke:#000000;stroke-width:0.264583px;stroke-linecap:butt;stroke-linejoin:miter;stroke-opacity:1"
       d="m 19.99971,69.99971 h 10 v -20 h 9.999999 v -10 H 49.99971 v -10 h 19.999999 v -10 h 60.000001 v 10 h 20 v 10 h 10 v 10 h 10 v 20 h 10 v 60 h -10 v 20 h -10 v 10 h -10 v 10 h -20 v 10 H 69.999709 v -10 H 49.99971 v -10 H 39.999709 v -10 H 29.99971 v -20 h -10 z"
       id="path934" />
    <path
       style="fill:#ff0000;fill-opacity:1;stroke:none;stroke-width:0.264583px;stroke-linecap:butt;stroke-linejoin:miter;stroke-opacity:1"
       d="M 124.99957,75 H 135 v -9.99991 h -10.00043 z"
       id="path458" />
    <path
       style="fill:#ff0000;fill-opacity:1;stroke:none;stroke-width:0.264583px;stroke-linecap:butt;stroke-linejoin:miter;stroke-opacity:1"
       d="m 114.99967,84.9999 h 9.9999 V 75 h -9.9999 z"
       id="path456" />
    <path
       style="fill:#ff0000;fill-opacity:1;stroke:none;stroke-width:0.264583px;stroke-linecap:butt;stroke-linejoin:miter;stroke-opacity:1"
       d="m 104.99976,94.99981 h 9.99991 V 84.9999 h -9.99991 z"
       id="path454" />
    <path
       style="fill:#ff0000;fill-opacity:1;stroke:none;stroke-width:0.264583px;stroke-linecap:butt;stroke-linejoin:miter;stroke-opacity:1"
       d="m 94.99985,104.99971 h 9.99991 v -9.9999 h -9.99991 z"
       id="path452" />
    <path
       style="fill:#ff0000;fill-opacity:1;stroke:none;stroke-width:0.264583px;stroke-linecap:butt;stroke-linejoin:miter;stroke-opacity:1"
       d="m 84.999946,114.99962 h 9.999904 v -9.99991 h -9.999904 z"
       id="path450" />
    <path
       style="fill:#ff0000;fill-opacity:1;stroke:none;stroke-width:0.264583px;stroke-linecap:butt;stroke-linejoin:miter;stroke-opacity:1"
       d="M 74.999524,125.00004 H 84.999946 V 114.99962 H 74.999524 Z"
       id="path448" />
    <path
       style="fill:#ff0000;fill-opacity:1;stroke:none;stroke-width:0.264583px;stroke-linecap:butt;stroke-linejoin:miter;stroke-opacity:1"
       d="m 54.99971,114.99962 v 30.00024 h 30.000236 v -9.99991 H 74.999524 v -9.99991 h -9.999906 v -10.00042 z"
       id="path446" />
    <path
       style="fill:#ff0000;fill-opacity:1;stroke:none;stroke-width:0.264583px;stroke-linecap:butt;stroke-linejoin:miter;stroke-opacity:1"
       d="m 49.999804,29.99985 h 19.999814 v -9.9999 H 49.999804 Z"
       id="path430" />
    <path
       style="fill:#ff0000;fill-opacity:1;stroke:none;stroke-width:0.264583px;stroke-linecap:butt;stroke-linejoin:miter;stroke-opacity:1"
       d="m 39.999898,39.99976 h 9.999906 v -9.99991 h -9.999906 z"
       id="path428" />
    <path
       style="fill:#ff0000;fill-opacity:1;stroke:none;stroke-width:0.264583px;stroke-linecap:butt;stroke-linejoin:miter;stroke-opacity:1"
       d="m 29.999992,49.99967 h 9.999906 v -9.99991 h -9.999906 z"
       id="path426" />
    <path
       style="fill:#ff0000;fill-opacity:1;stroke:none;stroke-width:0.264583px;stroke-linecap:butt;stroke-linejoin:miter;stroke-opacity:1"
       d="M 19.999569,70 H 29.999992 V 49.99967 H 19.999569 Z"
       id="path424" />
    <path
       style="fill:#ff0000;fill-opacity:1;stroke:none;stroke-width:0.264583px;stroke-linecap:butt;stroke-linejoin:miter;stroke-opacity:1"
       d="M 19.999569,129.99995 V 70 H 9.9996628 v 59.99995 z"
       id="path422" />
    <path
       style="fill:#ff0000;fill-opacity:1;stroke:none;stroke-width:0.264583px;stroke-linecap:butt;stroke-linejoin:miter;stroke-opacity:1"
       d="M 29.999992,149.99976 V 129.99995 H 19.999569 v 19.99981 z"
       id="path420" />
    <path
       style="fill:#ff0000;fill-opacity:1;stroke:none;stroke-width:0.264583px;stroke-linecap:butt;stroke-linejoin:miter;stroke-opacity:1"
       d="m 39.999898,159.99967 v -9.99991 h -9.999906 v 9.99991 z"
       id="path418" />
    <path
       style="fill:#ff0000;fill-opacity:1;stroke:none;stroke-width:0.264583px;stroke-linecap:butt;stroke-linejoin:miter;stroke-opacity:1"
       d="m 49.999804,170.00009 v -10.00042 h -9.999906 v 10.00042 z"
       id="path416" />
    <path
       style="fill:#ff0000;fill-opacity:1;stroke:none;stroke-width:0.264583px;stroke-linecap:butt;stroke-linejoin:miter;stroke-opacity:1"
       d="m 69.999618,180 v -9.99991 H 49.999804 V 180 Z"
       id="path414" />
    <path
       style="fill:#ff0000;fill-opacity:1;stroke:none;stroke-width:0.264583px;stroke-linecap:butt;stroke-linejoin:miter;stroke-opacity:1"
       d="M 129.99957,180 H 69.999618 v 9.99992 h 59.999952 z"
       id="path412" />
    <path
       style="fill:#ff0000;fill-opacity:1;stroke:none;stroke-width:0.264583px;stroke-linecap:butt;stroke-linejoin:miter;stroke-opacity:1"
       d="M 149.9999,170.00009 H 129.99957 V 180 h 20.00033 z"
       id="path410" />
    <path
       style="fill:#ff0000;fill-opacity:1;stroke:none;stroke-width:0.264583px;stroke-linecap:butt;stroke-linejoin:miter;stroke-opacity:1"
       d="m 159.99981,159.99967 h -9.99991 v 10.00042 h 9.99991 z"
       id="path408" />
    <path
       style="fill:#ff0000;fill-opacity:1;stroke:none;stroke-width:0.264583px;stroke-linecap:butt;stroke-linejoin:miter;stroke-opacity:1"
       d="m 169.99971,149.99976 h -9.9999 v 9.99991 h 9.9999 z"
       id="path406" />
    <path
       style="fill:#ff0000;fill-opacity:1;stroke:none;stroke-width:0.264583px;stroke-linecap:butt;stroke-linejoin:miter;stroke-opacity:1"
       d="m 179.99962,129.99995 h -9.99991 v 19.99981 h 9.99991 z"
       id="path404" />
    <path
       style="fill:#ff0000;fill-opacity:1;stroke:none;stroke-width:0.264583px;stroke-linecap:butt;stroke-linejoin:miter;stroke-opacity:1"
       d="m 179.99962,70 v 59.99995 h 9.99991 V 70 Z"
       id="path402" />
    <path
       style="fill:#ff0000;fill-opacity:1;stroke:none;stroke-width:0.264583px;stroke-linecap:butt;stroke-linejoin:miter;stroke-opacity:1"
       d="M 169.99971,49.99967 V 70 h 9.99991 V 49.99967 Z"
       id="path400" />
    <path
       style="fill:#ff0000;fill-opacity:1;stroke:none;stroke-width:0.264583px;stroke-linecap:butt;stroke-linejoin:miter;stroke-opacity:1"
       d="m 159.99981,39.99976 v 9.99991 h 9.9999 v -9.99991 z"
       id="path398" />
    <path
       style="fill:#ff0000;fill-opacity:1;stroke:none;stroke-width:0.264583px;stroke-linecap:butt;stroke-linejoin:miter;stroke-opacity:1"
       d="m 149.9999,29.99985 v 9.99991 h 9.99991 v -9.99991 z"
       id="path396" />
    <path
       style="fill:#ff0000;fill-opacity:1;stroke:none;stroke-width:0.264583px;stroke-linecap:butt;stroke-linejoin:miter;stroke-opacity:1"
       d="m 129.99957,19.99995 v 9.9999 h 20.00033 v -9.9999 z"
       id="path394" />
    <path
       style="fill:#ff0000;fill-opacity:1;stroke:none;stroke-width:0.264583px;stroke-linecap:butt;stroke-linejoin:miter;stroke-opacity:1"
       d="m 69.999618,10.00004 v 9.99991 h 59.999952 v -9.99991 z"
       id="path12" />
    <path
       id="path468-3"
       style="display:inline;fill:#ff0000;fill-opacity:1;stroke:none;stroke-width:0.999999px;stroke-linecap:butt;stroke-linejoin:miter;stroke-opacity:1"
       d="m 510.23633,283.46484 v 37.79688 37.79297 37.79492 h 37.79492 v -37.79492 -37.79492 -37.79493 z"
       transform="scale(0.26458333)" />
    <path
       id="path468-7"
       style="display:inline;fill:#ff0000;fill-opacity:1;stroke:none;stroke-width:0.341576px;stroke-linecap:butt;stroke-linejoin:miter;stroke-opacity:1"
       d="M 112.5,115 H 110 v 2.5 h -2.5 v 2.5 0 5 0 2.5 h 2.5 v 2.5 h 2.5 v 2.5 h 5 5 V 130 h 2.5 v -2.5 h 2.5 v -2.5 0 -5 0 -2.5 H 125 V 115 h -2.5 v -2.5 h -10 z"
       sodipodi:nodetypes="cccccccccccccccccccccccccccccc" />
    <path
       style="display:inline;fill:#ff0000;fill-opacity:1;stroke:none;stroke-width:0.264583px;stroke-linecap:butt;stroke-linejoin:miter;stroke-opacity:1"
       d="M 124.99957,114.99992 H 135 V 105 h -10.00043 z"
       id="path466" />
    <path
       style="display:inline;fill:#ff0000;fill-opacity:1;stroke:none;stroke-width:0.264583px;stroke-linecap:butt;stroke-linejoin:miter;stroke-opacity:1"
       d="M 74.999906,75 H 65 v 9.99991 h 9.999906 z"
       id="path438" />
    <path
       id="path432"
       style="display:inline;fill:#ff0000;fill-opacity:1;stroke:none;stroke-width:0.999999px;stroke-linecap:butt;stroke-linejoin:miter;stroke-opacity:1"
       d="m 283.46484,245.66992 v 37.79688 h 37.79688 v -0.002 h 37.79297 37.79492 37.79492 v -37.79492 h -37.79492 -37.79492 -37.79297 -0.002 z"
       transform="scale(0.26458333)" />
    <path
       style="display:inline;fill:#ff0000;fill-opacity:1;stroke:none;stroke-width:0.264583px;stroke-linecap:butt;stroke-linejoin:miter;stroke-opacity:1"
       d="M 134.99957,64.99991 H 145 V 55 h -10.00043 z"
       id="path466-6" />
    <path
       style="display:inline;opacity:1;fill:#ff0000;fill-opacity:1;stroke:none;stroke-width:0;stroke-linecap:butt;stroke-linejoin:miter;stroke-miterlimit:4;stroke-dasharray:none;stroke-opacity:1"
       d="m 57.500001,80 h 2.5 v 2.5 h 2.5 V 85 h 2.500001 v 2.5 h 2.5 V 90 h 2.5 v 2.5 2.5 h -2.5 v 2.5 h -2.5 v 2.5 h -2.500001 v 2.5 h -2.5 v 2.5 h -2.5 -2.5 v -2.5 H 52.5 V 100 H 50 V 97.5 H 47.500002 V 95 h -2.5 V 92.5 90 h 2.5 V 87.5 H 50 V 85 h 2.5 v -2.5 h 2.500001 V 80 h 2.5 v 0"
       id="path4923"
       sodipodi:nodetypes="cccccccccccccccccccccccccccccccccccccccccc" />
  </g>
</svg>
